<svg width="100" height="100" viewBox="0 0 100 100" fill="none" xmlns="http://www.w3.org/2000/svg">
<rect width="100" height="100" fill="#FFD836"/>
<g clip-path="url(#clip0_901_2)">
<g opacity="0.8">
<path d="M95 95H5V5H95V95ZM7.99066 92.0094H92.0094V7.99066H7.99066V92.0094Z" fill="black"/>
<path d="M27.0873 35.9034H22.944V33.1931C26.9004 33.1931 30.2338 33.1931 34.2212 33.1931V35.9034H30.078V46.8069H27.056V35.9034H27.0873Z" fill="#231F20"/>
<path d="M56.5577 46.433H53.1931L49.7041 41.9782H47.5233V46.433H44.5016V32.8505C46.7135 32.8505 48.7695 32.8505 50.9503 32.8505C54.2212 32.8505 55.9657 35.0312 55.9657 37.4298C55.9346 39.2057 55.4362 40.7632 52.8193 41.6979L56.5577 46.215V46.433ZM47.5233 35.4673V39.4237H50.9814C52.3831 39.4237 52.9751 38.3645 52.9751 37.5234C52.944 36.5887 52.352 35.4673 50.9503 35.4673H47.5233Z" fill="#231F20"/>
<path d="M68.489 46.2772V32.6636H71.5109V46.2461H68.489V46.2772Z" fill="#231F20"/>
<path d="M31.9469 62.3831L31.7601 58.1152V53.5357H34.813V67.1184H32.1963L25.4361 58.4268L25.5606 62.8816V67.1184H22.4766V53.5357H25.0934L31.9469 62.3831Z" fill="#231F20"/>
<path d="M56.3085 64.9689C54.9065 66.3395 53.0996 66.9626 51.0748 66.9626C45.9034 66.9626 43.8161 63.6294 43.8161 59.9221C43.785 56.4018 46.0903 52.7259 51.0748 52.7259C52.944 52.7259 54.6574 53.4423 56.0591 54.8131L54.1588 56.6823C53.349 55.8723 52.1651 55.5607 51.0748 55.5607C47.9906 55.5607 46.7756 57.9596 46.8069 59.9221C46.838 61.9158 47.8972 64.1589 51.0748 64.1589C52.1651 64.1589 53.5982 63.6605 54.4082 62.8505L56.3085 64.9689Z" fill="#231F20"/>
<path d="M73.2555 65H66.2773L65.2803 67.3364H62.0094L68.1153 53.7539H71.4174L77.5233 67.3364H74.2524L73.2555 65ZM69.7663 56.8068L67.4298 62.3208H72.1027L69.7663 56.8068Z" fill="#231F20"/>
</g>
</g>
<defs>
<clipPath id="clip0_901_2">
<rect width="90" height="90" fill="white" transform="translate(5 5)"/>
</clipPath>
</defs>
</svg>
